# xmcd
#
# Track frame offsets: 
#        150
#        17376
#        30572
#        44887
#        62294
#        77981
#        95025
#        114989
#        133807
#        150540
#        166993
#        184279
#        200455
#
# Disc length: 2988 seconds
#
# Revision: 0
# Processed by: cddbd v1.5.2PL0 Copyright (c) Steve Scherf et al.
# Submitted via: ExactAudioCopy v0.95b2
#
DISCID=a90baa0d
DTITLE=Andreas Oscar - Der Engel bleibst Du
DYEAR=2008
DGENRE=Ballad
TTITLE0=Der Engel bleibst Du
TTITLE1=Tequila Sunrise
TTITLE2=Black Side
TTITLE3=Eine Ewigkeit und ein paar Tage
TTITLE4=One Night At A Time
TTITLE5=Bless The Broken Road
TTITLE6=You've Got A Friend
TTITLE7=Ganz hier
TTITLE8=Lass Dir Die Traeume nicht nehmen
TTITLE9=Back To Paris
TTITLE10=It's Getting Better All The Time
TTITLE11=I Cross My Heart
TTITLE12=Jedes Jahr wuensch ich mir Engel
EXTD=
EXTT0=
EXTT1=
EXTT2=
EXTT3=
EXTT4=
EXTT5=
EXTT6=
EXTT7=
EXTT8=
EXTT9=
EXTT10=
EXTT11=
EXTT12=
PLAYORDER=
